# xmcd
#
# Track frame offsets:
#	150
#	13427
#	25107
#	37357
#	53350
#	69562
#	82970
#	93600
#	100895
#	115705
#	126172
#
# Disc length: 1845 seconds
#
# Revision: 1
# Processed by: cddbd v1.5.1PL0 Copyright (c) Steve Scherf et al.
# Submitted via: CDex 1.50Beta5
#
DISCID=8e07330b
DTITLE=高田渡 - 石
DYEAR=2000
DGENRE=
TTITLE0=ひまわり
TTITLE1=夜の灯
TTITLE2=私は私よ
TTITLE3=ものもらい
TTITLE4=私の青空(MY BLUE HEAVEN)
TTITLE5=石
TTITLE6=いつになったら
TTITLE7=丘を越えて
TTITLE8=当世平和節
TTITLE9=正午
TTITLE10=火吹竹
EXTD=
EXTT0=
EXTT1=
EXTT2=
EXTT3=
EXTT4=
EXTT5=
EXTT6=
EXTT7=
EXTT8=
EXTT9=
EXTT10=
PLAYORDER=
